# xmcd CD database file
#
# Track frame offsets:
#	150
#	20725
#	48975
#	71343
#	101794
#	127721
#	159311
#	183331
#	217464
#	267842
#	288207
#
# Disc length: 4535 seconds
#
# Revision: 1
# Processed by: cddbd v1.5.1PL2 Copyright (c) Steve Scherf et al.
# Submitted via: CDex 1.51
#
DISCID=9c11b50b
DTITLE=Ian Parker - Whilst The Wind (Live)
DYEAR=2005
DGENRE=Blues
TTITLE0=Power Of The Gospel
TTITLE1=The Love I Have
TTITLE2=Misfits And Fools
TTITLE3=It Hurts A Man
TTITLE4=The Moral Men
TTITLE5=She Cries
TTITLE6=The Truth Within
TTITLE7=Feeling Whole Again
TTITLE8=By Your Side
TTITLE9=She´s All Right
TTITLE10=Almost Cut My Hair/ The Green Manalishi
EXTD=YEAR: 2005
EXTT0=
EXTT1=
EXTT2=
EXTT3=
EXTT4=
EXTT5=
EXTT6=
EXTT7=
EXTT8=
EXTT9=
EXTT10=
PLAYORDER=
